<?xml version="1.0" encoding="UTF-8" standalone="no"?><!DOCTYPE svg PUBLIC "-//W3C//DTD SVG 1.1//EN" "http://www.w3.org/Graphics/SVG/1.1/DTD/svg11.dtd"><svg width="100%" height="100%" viewBox="0 0 200 192" version="1.1" xmlns="http://www.w3.org/2000/svg" xmlns:xlink="http://www.w3.org/1999/xlink" xml:space="preserve" xmlns:serif="http://www.serif.com/" style="fill-rule:evenodd;clip-rule:evenodd;stroke-linejoin:round;stroke-miterlimit:2;"><g id="アートボード1"><rect x="8.333" y="4.167" width="183.333" height="183.333" style="fill:none;"/><g opacity="0.5"><g><path d="M10.688,27.417c0,0 35.531,-16.286 48.869,27.323c0,0 -9.495,-22.539 -24.324,-21.762c0,0 -8.55,1.522 -13.541,-2.673c-3.247,-2.721 -4.29,-3.599 -11.004,-2.887" style="fill:#72c6ef;fill-rule:nonzero;"/></g></g><g opacity="0.5"><g><path d="M52.486,186.706c0,0 -73.083,-29.197 -11.743,-111.619c0,0 -18.65,26.353 -7.388,44.992c0,0 3.719,7.903 2.334,18.511c-2.638,20.318 18.817,50.782 16.796,48.117" style="fill:#72c6ef;fill-rule:nonzero;"/></g></g><g opacity="0.5"><g><path d="M149.461,10.415c0,0 -49.121,-27.267 -80.901,41.619c0,0 8.877,-21.563 28.044,-22.033c0,0 4.516,0.893 18.422,-11.138c15.684,-13.566 37.052,-8.327 34.435,-8.448" style="fill:#72c6ef;fill-rule:nonzero;"/></g></g><g opacity="0.5"><g><path d="M12.629,29.432c0,0 -5.633,17.468 21.063,39.557c0,0 -17.48,-9.061 -20.671,-15.968c-3.633,-7.875 -3.372,-11.419 -3.372,-11.419c0,0 -1.779,-8.016 2.979,-12.169" style="fill:#72c6ef;fill-rule:nonzero;"/></g></g><g opacity="0.5"><g><path d="M15.707,31.927c0,0 5.856,17.67 15.771,22.736c0,0 -3.634,-0.156 -5.582,-1.587c0,0 -7.85,-9.275 -10.189,-21.149" style="fill:#72c6ef;fill-rule:nonzero;"/></g></g><g opacity="0.5"><g><path d="M62.673,149.822c0,0 -44.5,-39.142 -14.224,-80.102c0,0 -11.625,26.254 0.656,43.233c8.07,11.177 -6.628,17.225 13.568,36.869" style="fill:#72c6ef;fill-rule:nonzero;"/></g></g><g opacity="0.5"><g><path d="M150.066,12.33c0,0 17.218,4.93 27.309,22.677c0,0 -24.301,-22.367 -47.833,-11.633c-22.618,10.303 -23.624,8.467 -28.423,7.518c0,0 5.55,0.771 14.064,-7.953c6.829,-6.975 13.882,-9.725 34.883,-10.61" style="fill:#72c6ef;fill-rule:nonzero;"/></g></g><g opacity="0.5"><g><path d="M37.63,94.503c0,0 -4.973,15.102 -3.229,21.341c0,0 3.336,4.931 2.795,18.122c0,0 1.606,-11.007 0.521,-18.773c-1.085,-7.763 -2.465,-9.185 -0.087,-20.69" style="fill:#72c6ef;fill-rule:nonzero;"/></g></g><g opacity="0.5"><g><path d="M103.611,33.246c0,0 -15.704,3.846 -20.088,8.196c0,0 -2.344,4.88 -13.929,11.002c0,0 10.309,-4.267 16.348,-8.893c6.043,-4.634 6.486,-6.343 17.669,-10.305" style="fill:#72c6ef;fill-rule:nonzero;"/></g></g><g opacity="0.5"><g><path d="M124.735,69.359c0,0 -75.44,-50.023 -78.57,19.607c0,0 2.634,-29.022 24.377,-27.027c0,0 8.029,-12.851 54.193,7.42" style="fill:#72c6ef;fill-rule:nonzero;"/></g></g><g opacity="0.5"><g><path d="M120.627,68.373c0,0 34.731,15.238 40.24,40.613c0,0 13.533,43.368 -15.974,48.049c0,0 23.253,-10.178 14.205,-36.247c-2.284,-6.57 -7.265,-11.437 -10.427,-14.539c-3.157,-3.097 2.61,-19.429 -28.043,-37.876" style="fill:#72c6ef;fill-rule:nonzero;"/></g></g><g opacity="0.5"><g><path d="M150.002,151.809c0.97,-0.366 -16.484,14.796 -54.87,10.502c-17.687,-1.984 -32.314,-12.624 -36.88,-19.758c0,0 11.988,14.033 43.663,14.528c9.032,0.143 11.227,-0.734 15.874,-2.114c10.988,-3.256 9.996,5.251 32.214,-3.158" style="fill:#72c6ef;fill-rule:nonzero;"/></g></g><g opacity="0.5"><g><path d="M72.345,62.955c0,0 16.841,-4.78 46.443,12.451c22.172,12.912 39.777,52.822 13.088,73.153c0,0 12.892,-26.663 -2.504,-39.882c0,0 4.908,-38.412 -57.027,-45.723" style="fill:#72c6ef;fill-rule:nonzero;"/></g></g><g opacity="0.5"><g><path d="M64.925,97.263c-9.034,29.07 17.137,47.034 62.425,53.676c0,0 -38.026,-1.499 -60.875,-22.19c-16.684,-15.111 -19.05,-58.9 11.414,-61.748c0,0 -13.755,3.195 -11.977,17.326c0,0 1.352,5.389 -0.986,12.936" style="fill:#72c6ef;fill-rule:nonzero;"/></g></g><g opacity="0.5"><g><path d="M127.772,110.897c0,0 -2.921,21.753 -25.675,23.692c-19.147,1.629 -29.564,-12.478 -29.564,-12.478c0,0 9.945,17.729 31.859,16.918c21.917,-0.811 13.736,-0.917 19.844,-10.904c6.111,-9.98 3.536,-17.228 3.536,-17.228" style="fill:#72c6ef;fill-rule:nonzero;"/></g></g><g opacity="0.5"><g><path d="M69.389,95.905c0,0 10.338,-19.252 30.715,-15.792c17.15,2.922 21.104,18.25 21.104,18.25c0,0 -2.238,-18.537 -21.486,-22.842c-19.248,-4.305 -12.205,-2.318 -21.085,5.418c-8.869,7.733 -9.248,14.965 -9.248,14.965" style="fill:#72c6ef;fill-rule:nonzero;"/></g></g><g opacity="0.5"><g><path d="M106.487,164.61c0,0 -0.729,12.375 13.226,18.394c13.944,6.014 36.511,-3.357 39.278,-6.271c0,0 -24.152,9.01 -32.154,2.209c-3.458,-2.938 -5.84,-2.848 -7.078,-2.239c-3.88,1.921 -6.452,-0.609 -6.452,-0.609c0,0 -3.71,-1.86 -6.82,-11.484" style="fill:#72c6ef;fill-rule:nonzero;"/></g></g><g opacity="0.5"><g><path d="M110.405,168.941c0,0 2.645,5.087 6.205,6.165c2.867,0.864 7.262,-2.988 13.855,-3.452c5.439,-0.387 22.31,0.143 27.64,3.876c0,0 -2.628,-5.926 -24.334,-10.544c-4.956,-1.057 -11.007,1.86 -14.126,4.239c0,0 -3.81,3.78 -9.24,-0.283" style="fill:#72c6ef;fill-rule:nonzero;"/></g></g><g opacity="0.5"><g><path d="M156.579,94.368c0,0 10.826,-5.902 22.182,3.516c11.365,9.426 12.584,32.816 11.137,36.445c0,0 -2.214,-24.603 -11.744,-28.582c-4.119,-1.719 -5.056,-3.794 -5.035,-5.124c0.068,-4.159 -3.303,-5.298 -3.303,-5.298c0,0 -3.254,-2.39 -13.237,-0.956" style="fill:#72c6ef;fill-rule:nonzero;"/></g></g><g opacity="0.5"><g><path d="M162.144,95.891c0,0 5.696,0.103 8.184,2.7c2.013,2.096 0.423,7.516 2.826,13.397c1.973,4.822 9.649,19.104 15.283,22.089c0,0 -6.447,0.276 -19.876,-16.42c-3.054,-3.804 -3.021,-10.252 -2.219,-13.948c0,0 1.772,-4.88 -4.197,-7.818" style="fill:#72c6ef;fill-rule:nonzero;"/></g></g></g></svg>