<?xml version="1.0" encoding="UTF-8" standalone="no"?>
<!DOCTYPE svg PUBLIC "-//W3C//DTD SVG 1.1//EN" "http://www.w3.org/Graphics/SVG/1.1/DTD/svg11.dtd">
<svg width="100%" height="100%" viewBox="0 0 324 324" version="1.1" xmlns="http://www.w3.org/2000/svg" xmlns:xlink="http://www.w3.org/1999/xlink" xml:space="preserve" xmlns:serif="http://www.serif.com/" style="fill-rule:evenodd;clip-rule:evenodd;stroke-linejoin:round;stroke-miterlimit:2;">
    <g id="アートボード1" transform="matrix(1,0,0,1,-215,-1058)">
        <rect x="215" y="1058" width="324" height="324" style="fill:none;"/>
        <g transform="matrix(4.788907,0,0,4.6819,-26.085077,813.910336)">
            <g opacity="0.5">
                <g transform="matrix(-0.225747,0.974186,0.974186,0.225747,64.292816,54.679396)">
                    <path d="M9.024,-11.337C9.024,-11.337 0.075,0.049 15,8.56C15,8.56 7.503,3.226 9.024,-2.039C9.024,-2.039 10.296,-4.983 9.169,-7.135C8.439,-8.534 8.203,-8.984 9.024,-11.337" style="fill:rgb(114,198,239);fill-rule:nonzero;"/>
                </g>
            </g>
        </g>
        <g transform="matrix(4.788907,0,0,4.6819,-26.085077,813.910336)">
            <g opacity="0.5">
                <g transform="matrix(0.962785,-0.270269,-0.270269,-0.962785,71.706237,116.72821)">
                    <path d="M-6.046,-2.779C-6.046,-2.779 -29.034,15.121 1.169,38.957C1.169,38.957 -8.146,31.24 -6.046,23.343C-6.046,23.343 -5.531,20.1 -7.105,16.383C-10.115,9.262 -5.6,-3.949 -6.046,-2.779" style="fill:rgb(114,198,239);fill-rule:nonzero;"/>
                </g>
            </g>
        </g>
        <g transform="matrix(4.788907,0,0,4.6819,-26.085077,813.910336)">
            <g opacity="0.5">
                <g transform="matrix(-0.35441,-0.93509,-0.93509,0.35441,80.326366,44.655187)">
                    <path d="M-17.031,-17.176C-17.031,-17.176 -0.982,-3.873 -21.14,16.309C-21.14,16.309 -14.69,10.361 -17.031,3.684C-17.031,3.684 -17.937,2.245 -15.509,-4.163C-12.772,-11.39 -17.416,-18.063 -17.031,-17.176" style="fill:rgb(114,198,239);fill-rule:nonzero;"/>
                </g>
            </g>
        </g>
        <g transform="matrix(4.788907,0,0,4.6819,-26.085077,813.910336)">
            <g opacity="0.5">
                <g transform="matrix(-0.999867,0.016283,0.016283,0.999867,57.742889,76.555853)">
                    <path d="M5.572,-14.977C5.572,-14.977 7.758,-8.418 -1.957,0.079C-1.957,0.079 4.437,-3.446 5.572,-6.072C6.864,-9.066 6.746,-10.402 6.746,-10.402C6.746,-10.402 7.353,-13.438 5.572,-14.977" style="fill:rgb(114,198,239);fill-rule:nonzero;"/>
                </g>
            </g>
        </g>
        <g transform="matrix(4.788907,0,0,4.6819,-26.085077,813.910336)">
            <g opacity="0.5">
                <g transform="matrix(1,0,0,1,53.0635,71.1956)">
                    <path d="M0,-8.582C0,-8.582 2.161,-1.912 5.82,0C5.82,0 4.479,-0.059 3.76,-0.599C3.76,-0.599 0.863,-4.1 0,-8.582" style="fill:rgb(114,198,239);fill-rule:nonzero;"/>
                </g>
            </g>
        </g>
        <g transform="matrix(4.788907,0,0,4.6819,-26.085077,813.910336)">
            <g opacity="0.5">
                <g transform="matrix(1,0,0,1,70.3955,76.8791)">
                    <path d="M0,30.236C0,30.236 -16.422,15.461 -5.249,0C-5.249,0 -9.539,9.91 -5.007,16.319C-2.029,20.538 -7.453,22.821 0,30.236" style="fill:rgb(114,198,239);fill-rule:nonzero;"/>
                </g>
            </g>
        </g>
        <g transform="matrix(4.788907,0,0,4.6819,-26.085077,813.910336)">
            <g opacity="0.5">
                <g transform="matrix(1,0,0,1,102.6465,63.7762)">
                    <path d="M0,-8.56C0,-8.56 6.354,-6.699 10.078,0C10.078,0 1.11,-8.443 -7.574,-4.391C-15.921,-0.502 -16.292,-1.195 -18.063,-1.553C-18.063,-1.553 -16.015,-1.262 -12.873,-4.555C-10.353,-7.188 -7.75,-8.226 0,-8.56" style="fill:rgb(114,198,239);fill-rule:nonzero;"/>
                </g>
            </g>
        </g>
        <g transform="matrix(4.788907,0,0,4.6819,-26.085077,813.910336)">
            <g opacity="0.5">
                <g transform="matrix(-0.999942,-0.010741,-0.010741,0.999942,59.671845,101.121741)">
                    <path d="M-1.322,-14.903C-1.322,-14.903 0.452,-9.183 -0.217,-6.835C-0.217,-6.835 -1.468,-4.987 -1.322,-0.006C-1.322,-0.006 -1.87,-4.167 -1.438,-7.094C-1.006,-10.02 -0.491,-10.551 -1.322,-14.903" style="fill:rgb(114,198,239);fill-rule:nonzero;"/>
                </g>
            </g>
        </g>
        <g transform="matrix(4.788907,0,0,4.6819,-26.085077,813.910336)">
            <g opacity="0.5">
                <g transform="matrix(-0.499945,-0.866057,-0.866057,0.499945,72.950085,63.110013)">
                    <path d="M-6.277,-10.871C-6.277,-10.871 -4.637,-5.126 -5.25,-2.904C-5.25,-2.904 -6.413,-1.234 -6.277,3.624C-6.277,3.624 -6.784,-0.476 -6.386,-3.279C-5.986,-6.085 -5.509,-6.549 -6.277,-10.871" style="fill:rgb(114,198,239);fill-rule:nonzero;"/>
                </g>
            </g>
        </g>
        <g transform="matrix(4.788907,0,0,4.6819,-26.085077,813.910336)">
            <g opacity="0.5">
                <g transform="matrix(1,0,0,1,93.2988,65.262)">
                    <path d="M0,11.481C0,11.481 -27.84,-7.401 -28.995,18.882C-28.995,18.882 -28.023,7.927 -19.999,8.68C-19.999,8.68 -17.036,3.829 0,11.481" style="fill:rgb(114,198,239);fill-rule:nonzero;"/>
                </g>
            </g>
        </g>
        <g transform="matrix(4.788907,0,0,4.6819,-26.085077,813.910336)">
            <g opacity="0.5">
                <g transform="matrix(1,0,0,1,91.7827,109.8375)">
                    <path d="M0,-33.467C0,-33.467 12.817,-27.715 14.85,-18.137C14.85,-18.137 19.844,-1.767 8.955,0C8.955,0 17.536,-3.842 14.197,-13.682C13.354,-16.162 11.516,-17.999 10.349,-19.17C9.184,-20.339 11.312,-26.504 0,-33.467" style="fill:rgb(114,198,239);fill-rule:nonzero;"/>
                </g>
            </g>
        </g>
        <g transform="matrix(4.788907,0,0,4.6819,-26.085077,813.910336)">
            <g opacity="0.5">
                <g transform="matrix(1,0,0,1,102.623,109.9561)">
                    <path d="M0,-2.091C0.358,-2.229 -6.083,3.494 -20.249,1.873C-26.776,1.124 -32.174,-2.892 -33.859,-5.585C-33.859,-5.585 -29.435,-0.288 -17.746,-0.101C-14.413,-0.047 -13.603,-0.378 -11.888,-0.899C-7.833,-2.128 -8.199,1.083 0,-2.091" style="fill:rgb(114,198,239);fill-rule:nonzero;"/>
                </g>
            </g>
        </g>
        <g transform="matrix(4.788907,0,0,4.6819,-26.085077,813.910336)">
            <g opacity="0.5">
                <g transform="matrix(-0.826972,0.562243,0.562243,0.826972,111.607334,93.249926)">
                    <path d="M20.489,-36.814C20.489,-36.814 14.335,-34.812 8.958,-23.291C4.932,-14.66 8.029,1.451 20.489,2.26C20.489,2.26 10.896,-3.388 12.789,-10.709C12.789,-10.709 3.139,-21.681 20.489,-36.814" style="fill:rgb(114,198,239);fill-rule:nonzero;"/>
                </g>
            </g>
        </g>
        <g transform="matrix(4.788907,0,0,4.6819,-26.085077,813.910336)">
            <g opacity="0.5">
                <g transform="matrix(1,0,0,1,71.2266,96.1137)">
                    <path d="M0,-8.838C-3.334,2.135 6.324,8.916 23.037,11.423C23.037,11.423 9.004,10.857 0.572,3.047C-5.585,-2.657 -6.458,-19.186 4.784,-20.261C4.784,-20.261 -0.292,-19.055 0.364,-13.721C0.364,-13.721 0.863,-11.687 0,-8.838" style="fill:rgb(114,198,239);fill-rule:nonzero;"/>
                </g>
            </g>
        </g>
        <g transform="matrix(4.788907,0,0,4.6819,-26.085077,813.910336)">
            <g opacity="0.5">
                <g transform="matrix(1,0,0,1,94.4194,103.3472)">
                    <path d="M0,-10.925C0,-10.925 -1.078,-2.714 -9.475,-1.982C-16.541,-1.367 -20.385,-6.692 -20.385,-6.692C-20.385,-6.692 -16.715,0 -8.628,-0.306C-0.54,-0.612 -3.559,-0.652 -1.305,-4.422C0.95,-8.189 0,-10.925 0,-10.925" style="fill:rgb(114,198,239);fill-rule:nonzero;"/>
                </g>
            </g>
        </g>
        <g transform="matrix(4.788907,0,0,4.6819,-26.085077,813.910336)">
            <g opacity="0.5">
                <g transform="matrix(1,0,0,1,72.874,78.372)">
                    <path d="M0,8.391C0,8.391 3.815,1.124 11.335,2.43C17.664,3.533 19.123,9.319 19.123,9.319C19.123,9.319 18.297,2.322 11.194,0.697C4.091,-0.928 6.69,-0.178 3.413,2.742C0.14,5.661 0,8.391 0,8.391" style="fill:rgb(114,198,239);fill-rule:nonzero;"/>
                </g>
            </g>
        </g>
        <g transform="matrix(4.788907,0,0,4.6819,-26.085077,813.910336)">
            <g opacity="0.5">
                <g transform="matrix(1,0,0,1,86.5645,121.9101)">
                    <path d="M0,-9.213C0,-9.213 -0.269,-4.542 4.881,-2.27C10.027,0 18.355,-3.537 19.376,-4.637C19.376,-4.637 10.463,-1.236 7.51,-3.803C6.234,-4.912 5.355,-4.878 4.898,-4.648C3.466,-3.923 2.517,-4.878 2.517,-4.878C2.517,-4.878 1.148,-5.58 0,-9.213" style="fill:rgb(114,198,239);fill-rule:nonzero;"/>
                </g>
            </g>
        </g>
        <g transform="matrix(4.788907,0,0,4.6819,-26.085077,813.910336)">
            <g opacity="0.5">
                <g transform="matrix(1,0,0,1,88.0103,115.0929)">
                    <path d="M0,-0.761C0,-0.761 0.976,1.159 2.29,1.566C3.348,1.892 4.97,0.438 7.403,0.263C9.41,0.117 15.636,0.317 17.603,1.726C17.603,1.726 16.633,-0.511 8.623,-2.254C6.794,-2.653 4.561,-1.552 3.41,-0.654C3.41,-0.654 2.004,0.773 0,-0.761" style="fill:rgb(114,198,239);fill-rule:nonzero;"/>
                </g>
            </g>
        </g>
        <g transform="matrix(4.788907,0,0,4.6819,-26.085077,813.910336)">
            <g opacity="0.5">
                <g transform="matrix(1,0,0,1,105.0503,99.039)">
                    <path d="M0,-12.856C0,-12.856 3.995,-15.084 8.186,-11.529C12.38,-7.971 12.83,0.858 12.296,2.228C12.296,2.228 11.479,-7.059 7.962,-8.561C6.442,-9.21 6.096,-9.993 6.104,-10.495C6.129,-12.065 4.885,-12.495 4.885,-12.495C4.885,-12.495 3.684,-13.397 0,-12.856" style="fill:rgb(114,198,239);fill-rule:nonzero;"/>
                </g>
            </g>
        </g>
        <g transform="matrix(4.788907,0,0,4.6819,-26.085077,813.910336)">
            <g opacity="0.5">
                <g transform="matrix(1,0,0,1,107.104,101.2757)">
                    <path d="M0,-14.518C0,-14.518 2.102,-14.479 3.02,-13.499C3.763,-12.708 3.176,-10.662 4.063,-8.442C4.791,-6.622 7.624,-1.231 9.703,-0.104C9.703,-0.104 7.324,0 2.368,-6.302C1.241,-7.738 1.253,-10.172 1.549,-11.567C1.549,-11.567 2.203,-13.409 0,-14.518" style="fill:rgb(114,198,239);fill-rule:nonzero;"/>
                </g>
            </g>
        </g>
    </g>
</svg>
